<?xml version="1.0" encoding="utf-8"?>
<!-- Generator: Adobe Illustrator 24.3.0, SVG Export Plug-In . SVG Version: 6.00 Build 0)  -->
<svg version="1.1" id="Layer_1" xmlns="http://www.w3.org/2000/svg" xmlns:xlink="http://www.w3.org/1999/xlink" x="0px" y="0px"
	 viewBox="0 0 397 229" style="enable-background:new 0 0 397 229;" xml:space="preserve">
<style type="text/css">
	.st0{fill:#EA6A0A;}
	.st1{fill:#01CAB9;}
	.st2{fill:#FFFFFF;}
	.st3{fill:none;stroke:#EB6B10;stroke-width:4.5112;stroke-miterlimit:10;}
	.st4{fill:none;stroke:#EB6B10;stroke-width:8.1163;stroke-miterlimit:10;}
</style>
<g>
	<path class="st0" d="M7.3,192.6V59.9c0-5.7,4.7-10.4,10.4-10.4h129.5c-1.5-1.8-3.1-3.7-4.7-5.6H17.7c-8.8,0-16,7.2-16,16v132.7
		c0,8.8,7.2,16,16,16h81V203h-81C12,203,7.3,198.3,7.3,192.6z"/>
	<path class="st0" d="M379.3,43.9H268.8c0.2,0.6,0.3,1.2,0.4,1.7c0.2,1.1,0.2,2.4,0,3.9h110.1c5.7,0,10.4,4.7,10.4,10.4v132.7
		c0,5.7-4.7,10.4-10.4,10.4h-81v5.6h81c8.8,0,16-7.2,16-16V59.9C395.3,51.1,388.1,43.9,379.3,43.9z"/>
	<g>
		<path class="st1" d="M259.3,41.7c-5.1-3.4-10.9-4.4-17-4.3c-6,0.1-11.7,1.5-17.4,3.4c-6.9,2.3-13.7,4.7-20.5,7
			c-1.8,0.6-3.7,1.4-5.5,2.1c-1.1,0.4-1.6,1.5-0.9,1.9c1.2,0.7,2.5,1.8,4,0.6c0.1-0.1,0.3-0.2,0.5-0.2c8.3-2.8,16.5-5.7,24.8-8.4
			c6.2-2,12.6-3.4,19.3-2.9c3.7,0.3,7.3,1,10.5,2.9c0.6,0.3,1.1,0.8,1.6,1.2c0,0.1-0.1,0.1-0.1,0.2c-1.4-0.2-2.8-0.4-4.2-0.5
			c-6.6-0.4-13,0.7-19.3,2.5c-7.3,2.1-14.6,4.4-21.8,6.8c-3.1,1-6.2,2.1-9.5,3.3c2.4,2.3,4.7,4.4,6.9,6.6c-0.1,0.1-0.1,0.2-0.2,0.3
			c-0.6-0.4-1.2-0.8-1.8-1.1c-2.6-1.7-5.2-3.5-7.7-5.2c-1.2-0.8-2.5-1.7-3.7-2.5c-0.3-0.2-1-0.3-1.2-0.1c-1.2,1.3-2.7,2-4.4,2.4
			c-5.3,1.6-10.8,1.7-16.3,0.9c-0.3,0-0.5-0.2-0.8-0.4c0-0.1,0.1-0.2,0.1-0.2c4.3-0.7,8.6-1.5,13-2.2c-3.1-2.6-4.5-5.2-5.1-10
			c-4.7,1.2-9.3,2.4-14,3.6c0-0.1-0.1-0.2-0.1-0.3c0.1-0.1,0.2-0.3,0.4-0.3c1.8-1,3.5-2.1,5.3-2.9c2.9-1.3,6-2.4,9-3.6
			c0.6-0.2,1.1-0.7,1.7-1c-0.1-0.1-0.1-0.3-0.2-0.4c-1.1,0.2-2.1,0.5-3.2,0.6c-0.6,0.1-1.3,0.1-1.8-0.2c-2.6-1.6-5.1-3.2-7.6-4.9
			c-4.4-2.9-8.7-5.9-13.1-8.8c-5.2-3.4-10.4-6.8-15.6-10.2c-5.1-3.4-10.1-6.8-15.3-10.2c-0.5-0.4-1.4-0.5-2-0.4
			c-2,0.3-4,0.8-5.9,1.2c-0.3,0.1-0.5,0.2-1,0.3c0.5,0.5,0.9,0.9,1.3,1.3c7.4,8.2,14.9,16.2,22.2,24.5c6,6.8,11.6,13.8,17.5,20.7
			c3.4,4,6.9,7.8,10.4,11.7c0.5,0.6,0.3,0.8-0.3,1c-2.5,0.8-5.1,1.6-7.6,2.4c-5.7,1.8-11.5,3.5-17.2,5.3c-5.2,1.6-10.3,3.2-15.4,4.9
			c-2.1,0.7-3.6,1-5.6-0.6c-3.7-2.9-7.7-5.3-11.6-7.9c-0.4-0.3-0.9-0.6-1.3-0.5c-1.8,0.2-3.5,0.6-5.6,0.9c0.6,0.6,0.9,1,1.3,1.4
			c3.1,3.1,6.1,6.3,9.3,9.3c0.6,0.6,0.4,0.9-0.1,1.3c-1.4,1.3-2.7,2.6-4.2,4.1c1.8,0.4,3.4,0.7,4.9,1c6.1,0.9,12.2,0.9,18.3,0.8
			c11.5-0.2,22.8-2,33.9-4.9c9.5-2.5,19-5.2,28.4-7.8c8.4-2.3,16.8-4.6,25.2-7s17-4.5,25.1-8c4.9-2.1,9.6-4.7,13-9
			C264,48.9,263.6,44.6,259.3,41.7z"/>
	</g>
	<g>
		<path class="st1" d="M202.8,91.3c-2.7,0.4-5.2,0.7-7.6,1.1c0-0.1,0-0.3-0.1-0.4c0.3-0.1,0.5-0.3,0.8-0.4c2.6-0.9,5.2-1.8,7.7-2.8
			c0.4-0.2,0.8-0.4,1.2-0.6c0-0.1-0.1-0.2-0.1-0.3c-1.3,0.2-2.5,0.3-3.8,0.5c0-0.1-0.1-0.2-0.1-0.3c2.6-3.6,5.2-7.2,7.8-10.8
			c-0.1-0.1-0.1-0.2-0.2-0.3c-1.6,0.4-3.2,0.8-4.8,1.2c-6,1.7-12.1,3.4-18.1,5.1c-2.1,0.6-4.1,1.2-6.1,1.8c-0.6,0.2-0.9,0.5-0.9,1.2
			c-0.1,8.9-0.3,17.8-0.5,26.8c0,0.7,0,1.3-0.1,2.2c0.9-0.3,1.6-0.6,2.2-0.8c3.7-1.3,3.9-1.3,5.1-3.5c1.9-3.4,4.2-6.5,6.4-9.8
			c0.4-0.6,0.8-0.8,1.5-0.8c4.3,0,8.6-0.3,12.8-1.4c0.4-0.1,0.7-0.2,1.4-0.4C204,97.1,203.1,94.2,202.8,91.3z"/>
	</g>
	<path class="st1" d="M128.7,76.9c2.2-0.9,4.5-1.7,6.7-2.5c9.3-3.3,18.6-6.6,28-10c-0.4-0.6-0.8-1.3-1.4-1.8
		c-0.4-0.3-1.1-0.6-1.5-0.5c-8.1,2.8-16.1,5.7-24.2,8.6c-0.7,0.2-1.2,0.2-1.8-0.2c-2.8-1.8-5.6-3.6-8.4-5.4c-0.3-0.2-0.7-0.4-1-0.4
		c-2.2,0.6-4.3,1.2-6.6,1.8l10.6,7.8l5.3,0.4l-9,3.4"/>
	<g>
		<path class="st1" d="M189.1,52.2c1.8,1.5,3.6,1.3,5.1-0.5c1-1.3,1.1-2.8,0.9-4.3c-0.2-2.7-1.3-5-3.3-6.1c-2.4-1.1-3.9-0.5-5,1.4
			C185.5,45.1,186.9,50.3,189.1,52.2z"/>
	</g>
	<g>
		<path class="st1" d="M121.1,91.6c0.4,3.5,0.8,6.7,1.1,10c1.5-0.2,2.8-0.3,4-0.6c0.4-0.1,0.9-0.3,1-0.6c1.5-2.6,3-5.3,4.4-7.9
			c0-0.1,0-0.2,0-0.3C128.2,92,124.7,91.8,121.1,91.6z"/>
	</g>
	<g>
		<path class="st1" d="M208.3,88.4c-0.7-0.3-1.5-0.4-2,0.5c-1.2,2-1.2,4.6,0.2,6.7c0.3,0.4,0.8,0.8,1.2,1.2c1.1,0.5,1.8,0.2,2.4-0.7
			C211.8,94,210.8,89.6,208.3,88.4z"/>
	</g>
	<g>
		<path class="st1" d="M124.8,78l0.1,0.3l0.5-0.2C125.3,78.1,125.1,78.1,124.8,78C124.9,78.1,124.9,78.1,124.8,78z"/>
	</g>
	<g>
		<path class="st1" d="M118.5,66.4L118.5,66.4c0.1,0.1,0.1,0.1,0.2,0.1L118.5,66.4z"/>
	</g>
	<g>
		<path class="st1" d="M124.9,78.1c0.2,0,0.4,0,0.6,0l10.2-3.8h-6.5l-10.6-7.8c0,0,0,0-0.1,0L124.9,78.1L124.9,78.1z"/>
	</g>
	<g>
		<g>
			<path class="st2" d="M60.8,151.6H40.2l-3.3,9.8H22.8l20-55.2h15.6l20,55.2H64.1L60.8,151.6z M57.4,141.2L50.5,121l-6.8,20.2H57.4
				z"/>
			<path class="st2" d="M97.9,103.1v58.2H84.5v-58.2C84.5,103.1,97.9,103.1,97.9,103.1z"/>
			<path class="st2" d="M172.2,106.1v55.2h-13.5v-22.7h-20.9v22.7h-13.5v-55.2h13.5v21.6h20.9v-21.6
				C158.7,106.1,172.2,106.1,172.2,106.1z"/>
			<path class="st2" d="M216.3,151.6h-20.6l-3.3,9.8h-14.1l20-55.2h15.6l20,55.2h-14.2L216.3,151.6z M212.8,141.2L206,121l-6.8,20.2
				H212.8z"/>
			<path class="st2" d="M289.3,161.4h-13.5l-22.5-34.1v34.1h-13.5v-55.2h13.5l22.5,34.2v-34.2h13.5V161.4z"/>
			<path class="st2" d="M312.5,106.1v55.2H299v-55.2C299,106.1,312.5,106.1,312.5,106.1z"/>
			<path class="st2" d="M356.7,151.6h-20.6l-3.3,9.8h-14.1l20-55.2h15.6l20,55.2H360L356.7,151.6z M353.2,141.2l-6.8-20.2l-6.8,20.2
				H353.2z"/>
			<path class="st2" d="M141.1,191.1v6.1h-8.2v25h-7.6v-25H117v-6.1H141.1z"/>
			<path class="st2" d="M160.7,222.2l-6.5-11.7h-1.8v11.7h-7.6v-31.1h12.7c2.5,0,4.5,0.4,6.3,1.3c1.7,0.9,3,2,3.9,3.5s1.3,3.1,1.3,5
				c0,2.1-0.6,3.9-1.7,5.5s-2.9,2.8-5.2,3.5l7.2,12.3H160.7z M152.4,205.1h4.7c1.4,0,2.4-0.3,3.1-1c0.7-0.7,1-1.6,1-2.9
				c0-1.2-0.3-2.1-1-2.8s-1.7-1-3.1-1h-4.7V205.1z"/>
			<path class="st2" d="M193.1,216.7h-11.6l-1.9,5.5h-7.9l11.2-31.1h8.8l11.2,31.1h-8L193.1,216.7z M191.1,210.9l-3.9-11.4
				l-3.8,11.4H191.1z"/>
			<path class="st2" d="M235.6,191.1l-11,31.1h-9.5l-11-31.1h8.1l7.7,23.5l7.7-23.5H235.6z"/>
			<path class="st2" d="M246.3,197.2v6.3h10.1v5.8h-10.1v6.8h11.5v6.1h-19v-31.1h19v6.1L246.3,197.2L246.3,197.2z"/>
			<path class="st2" d="M270.2,216.4h9.9v5.8h-17.5v-31.1h7.6V216.4z"/>
		</g>
	</g>
	<path class="st3" d="M391.6,205.8"/>
	<path class="st4" d="M299.1,205.8"/>
</g>
</svg>
